<svg id="_0533_target_audience" xmlns="http://www.w3.org/2000/svg" viewBox="0 0 500 500" data-imageid="target-audience-51" imageName="Target Audience" class="illustrations_image" style="width: 166px;"><defs><style>.cls-1_target-audience-51{opacity:.45;}.cls-1_target-audience-51,.cls-2_target-audience-51,.cls-3_target-audience-51,.cls-4_target-audience-51{fill:#e6e6e6;}.cls-5_target-audience-51{fill:#f4a28c;}.cls-6_target-audience-51{fill:#a5a5a5;}.cls-3_target-audience-51{opacity:.4;}.cls-4_target-audience-51{opacity:.3;}.cls-7_target-audience-51{fill:#000001;opacity:.09;}.cls-8_target-audience-51{fill:#ce8172;opacity:.31;}.cls-9_target-audience-51{opacity:.58;}.cls-9_target-audience-51,.cls-10_target-audience-51,.cls-11_target-audience-51{fill:#68e1fd;}.cls-12_target-audience-51{fill:#fff;opacity:.46;}.cls-13_target-audience-51{fill:#24285b;}.cls-10_target-audience-51{opacity:.73;}.cls-14_target-audience-51{fill:#ffd200;}</style></defs><g id="bg_target-audience-51"><ellipse class="cls-1_target-audience-51" cx="253.66" cy="430.7" rx="228.42" ry="32.76"/><path class="cls-4_target-audience-51" d="m249.12,161.89s18.48-11.63,50.27,13.78c31.8,25.41,40.77-41.48,75.82-25.97,35.06,15.51,10.6,40.01,61.15,44.07,50.55,4.05,54.76,14.57,52.25,53.34-2.51,38.77-44.88,28.9-33.48,66.86,11.4,37.95-22.85,46.1-50.57,43.66-27.72-2.44-30.98-48.96-67.67-34.67-36.69,14.29-48.37-15.92-87.78,9.37l-77.61-22.91-61.45-31.91-9.28-67.78,62.16-31.91,86.18-15.92Z"/><rect class="cls-2_target-audience-51" x="343.28" y="414.05" width="65.05" height="10.29"/><rect class="cls-6_target-audience-51" x="359.12" y="403.71" width="49.21" height="10.29"/><path class="cls-9_target-audience-51 targetColor" d="m402.82,401.34s-18.19-4.97-22.14-21.89c0,0,28.18-5.7,28.98,23.39l-6.84-1.5Z" style="fill: rgb(104, 225, 253);"/><path class="cls-10_target-audience-51 targetColor" d="m405.05,399.54s-12.71-20.09-1.52-38.87c0,0,21.42,13.61,11.91,38.91l-10.38-.04Z" style="fill: rgb(104, 225, 253);"/><path class="cls-11_target-audience-51 targetColor" d="m408.33,399.55s6.71-21.21,27.01-25.23c0,0,3.8,13.77-13.14,25.29l-13.87-.06Z" style="fill: rgb(104, 225, 253);"/><polygon class="cls-13_target-audience-51" points="395.14 399.08 398.82 424.3 422.04 424.4 425.46 399.2 395.14 399.08"/></g><g id="audience3_target-audience-51"><circle class="cls-1_target-audience-51" cx="429.76" cy="255.25" r="36.86"/><path class="cls-5_target-audience-51" d="m424.84,238.33s-1.07,5.15-.6,8.72c.19,1.45,1.54,2.48,2.98,2.27,1.79-.26,4.14-1.13,5.05-3.82l2.1-4.38s1.22-2.79-1.47-5.26c-2.69-2.47-7.56-.7-8.06,2.47Z"/><polygon class="cls-5_target-audience-51" points="433.99 241.91 434.67 259.14 425.15 258.84 428.47 246.42 433.99 241.91"/><path class="cls-13_target-audience-51" d="m426.11,238.7c.91.16,2.58.35,4.86.2,0,0-1.9,2.08-.57,4.78,1.34,2.7,4.12,1.92,4.12,1.92.33-3.13,1.08-6.53.6-9.67-.2-1.31-.71-2.61-1.66-3.53-1.19-1.16-2.93-1.43-4.48-.9-2.34.79-3.63,2.72-3.97,5.07-.2,1.35-.36,1.87,1.1,2.12Z"/><path class="cls-5_target-audience-51" d="m429.86,243.46s.28-2.01,1.77-1.67c1.49.33,1.11,3.24-.98,3.26l-.79-1.59Z"/><path class="cls-5_target-audience-51" d="m424.33,241.61l-1.69,1.84c-.42.45-.22,1.19.37,1.38l1.95.61-.63-3.83Z"/><path class="cls-8_target-audience-51" d="m427.63,249.11s1.79-.15,3.27-1.46c0,0-.51,3.12-4.31,5.8l1.04-4.34Z"/><path class="cls-11_target-audience-51 targetColor" d="m454.59,282.49s.56-23.14-24.39-24.33c-24.95-1.2-24.29,25.36-24.29,25.36,0,0,23.54,21.46,48.68-1.02Z" style="fill: rgb(104, 225, 253);"/></g><g id="audience2_target-audience-51"><circle class="cls-1_target-audience-51" cx="342.16" cy="295.02" r="36.86"/><path class="cls-5_target-audience-51" d="m344.08,277.51s-2.96,4.35-3.89,7.83c-.38,1.41.47,2.88,1.89,3.24,1.76.44,4.26.54,6.13-1.6l3.62-3.24s2.2-2.11.65-5.42c-1.55-3.31-6.72-3.54-8.39-.8Z"/><polygon class="cls-5_target-audience-51" points="351.17 284.31 345.22 300.5 336.53 296.58 344.35 286.38 351.17 284.31"/><path class="cls-13_target-audience-51" d="m345.11,278.34c.78.49,2.25,1.31,4.42,2.04,0,0-2.55,1.2-2.35,4.2.2,3.01,3.07,3.35,3.07,3.35l3.23-5.94c.99-1.7.99-3.81-.04-5.5-.42-.69-.9-1.41-1.43-2.06-1.32-1.63-4.44-1.89-5.32-3.89-.39-.88-1.58-1.02-2.16-.26-1.27,1.65-2.53,4.65-.65,6.99.34.43.78.77,1.24,1.06Z"/><path class="cls-5_target-audience-51" d="m346.76,284.17s1.02-1.75,2.28-.87c1.25.88-.21,3.42-2.15,2.64l-.13-1.77Z"/><path class="cls-5_target-audience-51" d="m342.36,280.35l-2.27,1.05c-.56.26-.66,1.01-.19,1.41l1.57,1.31.88-3.78Z"/><path class="cls-8_target-audience-51" d="m342.54,288.54s1.71.55,3.58-.1c0,0-1.66,2.69-6.2,3.71l2.62-3.61Z"/><path class="cls-11_target-audience-51 targetColor" d="m354.7,329.68s9.36-21.17-13.24-31.81c-22.6-10.64-32.14,14.15-32.14,14.15,0,0,13.56,28.83,45.38,17.66Z" style="fill: rgb(104, 225, 253);"/></g><g id="audience1_target-audience-51"><circle class="cls-1_target-audience-51" cx="353.48" cy="193.02" r="36.86"/><path class="cls-5_target-audience-51" d="m345.76,177.18s-.18,5.26.88,8.69c.43,1.39,1.94,2.18,3.32,1.73,1.72-.56,3.89-1.82,4.33-4.63l1.33-4.67s.73-2.96-2.34-4.93c-3.07-1.97-7.57.59-7.52,3.8Z"/><polygon class="cls-5_target-audience-51" points="355.39 179.16 358.99 196.02 349.55 197.34 350.72 184.54 355.39 179.16"/><path class="cls-5_target-audience-51" d="m351.58,181.38s-.07-2.02,1.46-1.95c1.53.08,1.64,3-.41,3.38l-1.05-1.43Z"/><path class="cls-5_target-audience-51" d="m345.82,180.5l-1.36,2.1c-.34.52-.02,1.21.6,1.29l2.03.27-1.27-3.67Z"/><path class="cls-8_target-audience-51" d="m350.35,187.33s1.74-.45,2.98-2c0,0,.03,3.16-3.27,6.45l.29-4.45Z"/><path class="cls-11_target-audience-51 targetColor" d="m382.58,215.65s-3.37-22.9-28.17-19.84-19.64,29.11-19.64,29.11c0,0,26.85,17.15,47.8-9.27Z" style="fill: rgb(104, 225, 253);"/><path class="cls-13_target-audience-51" d="m349.91,178.23l-7.75.64s0-5.67,5.21-7.54c5.22-1.87,8.82.56,10.19,6.13,1.38,5.58-.74,8.42-.74,8.42,0,0-6.91,1.34-6.91-7.66Z"/><path class="cls-13_target-audience-51" d="m353.25,171.26s6.74.17,8.43,10.01c1.69,9.83,10.22,13.26,4.88,20.27-5.34,7.01-16.23,4.92-13.3-3.8,2.93-8.72-4.34-10.42-3.34-19.5,1-9.08,3.33-6.98,3.33-6.98Z"/></g><g id="magnet_target-audience-51"><polygon class="cls-5_target-audience-51" points="77.01 150.21 76.33 184.65 95.34 183.67 88.2 159 77.01 150.21"/><path class="cls-8_target-audience-51" d="m89.99,164.34s-3.58-.22-6.6-2.79c0,0,1.13,6.2,8.85,11.41l-2.25-8.63Z"/><path class="cls-5_target-audience-51" d="m95.93,146.25s1.75,10.37.56,17.45c-.49,2.87-3.25,4.84-6.12,4.31-3.56-.65-8.18-2.57-9.8-8.01l-3.87-8.9s-2.23-5.66,3.33-10.39c5.56-4.73,15.15-.84,15.9,5.53Z"/><path class="cls-5_target-audience-51" d="m85.51,156.12s-.4-4.03-3.41-3.47c-3.01.56-2.46,6.38,1.71,6.59l1.7-3.12Z"/><path class="cls-5_target-audience-51" d="m96.69,152.84l3.25,3.8c.8.94.35,2.39-.84,2.72l-3.95,1.08,1.54-7.6Z"/><path class="cls-11_target-audience-51 targetColor" d="m80.73,178.36s46.66,14.85,35.89,47.01c-7.81,23.3-20.04,19.74-22.11,38.09l-2.24,18.08-47.3-11.45s4.09-26.5.15-43.73c-3.94-17.23-15.42-60.03,35.61-48.01Z" style="fill: rgb(104, 225, 253);"/><path class="cls-7_target-audience-51" d="m69.02,189.11s19.07,23.97,4.74,50.22c-2.43,4.45-4.52,9.08-6.55,13.73l-8.84,20.29-13.4-3.24,1.24-11.1,22.8-69.89Z"/><path class="cls-14_target-audience-51" d="m82.1,152.65s14.38,30.24,4.6,36.71c-9.78,6.47-27.86,6.25-30.99-6.82-3.13-13.07,9.62-17.09,8.68-35.57-.94-18.49,34.62-19.19,35.6-8.59.98,10.6-17.89,14.27-17.89,14.27Z"/><polygon class="cls-5_target-audience-51" points="75.5 323.02 130.53 419.83 138.07 418.19 107.71 312.67 75.5 323.02"/><path class="cls-5_target-audience-51" d="m46.67,316.07l15.74,40.96-32.94-15.99-4.03,7.48s37.55,39.21,58.71,29.18c21.16-10.03-7.79-75.77-7.79-75.77l-29.69,14.14Z"/><path class="cls-13_target-audience-51" d="m46.58,269.59l51,6.81,18.16,55.78-65.4,9.53s-23.56-40.3-3.77-72.12Z"/><path class="cls-11_target-audience-51 targetColor" d="m137.51,418.31s5.31,4.37,10.58,2.95c5.27-1.42,7.68,5.94-1.05,7.02-3.33.41-6.07.46-8.18.36-2.52-.12-4.92.67-7.16,1.83-.7.36-1.58.37-2.65-.44-3.05-2.32,1.48-10.2,1.48-10.2l6.99-1.52Z" style="fill: rgb(104, 225, 253);"/><path class="cls-11_target-audience-51 targetColor" d="m26.16,348.56s-6.75,1.31-9.02,6.27c-2.26,4.96-9.47,2.14-4.74-5.28,1.8-2.83,3.51-4.97,4.94-6.54,1.7-1.87,2.62-4.22,3.16-6.68.17-.77.72-1.46,2.03-1.76,3.74-.87,6.95,6.48,6.95,6.48l-3.32,7.52Z" style="fill: rgb(104, 225, 253);"/><path class="cls-6_target-audience-51" d="m249.12,332.33h-70.96c-53.12,0-96.33-38.23-96.33-85.22s43.22-85.22,96.33-85.22h70.96v36.72h-70.96c-32.87,0-59.61,21.75-59.61,48.5s26.74,48.49,59.61,48.49h70.96v36.72Z"/><rect class="cls-2_target-audience-51" x="198.73" y="161.89" width="50.4" height="36.72"/><rect class="cls-2_target-audience-51" x="198.73" y="295.6" width="50.4" height="36.72"/><path class="cls-11_target-audience-51 targetColor" d="m73.74,205.77c1.22-19.8-28.52-22.97-31.24-3.32-.77,5.55.19,12.67,4.11,21.82,15.67,36.59,45.13,54.46,77.12,52.33l-1.55-8.21s-49.44-11.61-49.3-57.08c0,0,.66-2.23.86-5.54Z" style="fill: rgb(104, 225, 253);"/><path class="cls-12_target-audience-51" d="m73.74,205.77c1.22-19.8-28.52-22.97-31.24-3.32-.77,5.55.19,12.67,4.11,21.82,15.67,36.59,45.13,54.46,77.12,52.33l-1.55-8.21s-49.44-11.61-49.3-57.08c0,0,.66-2.23.86-5.54Z"/><path class="cls-5_target-audience-51" d="m122.46,269.87s2.07-2.36,4.95-1.75,7.63,8.57-3.68,8.48l-1.27-6.74Z"/><path class="cls-5_target-audience-51" d="m120.79,233s4.5,8-2.12,10.23c-6.62,2.23-5.5-9.26,2.12-10.23Z"/><polygon class="cls-14_target-audience-51" points="260.75 303.63 282.18 320.42 282.63 311.56 300.61 319.04 276.56 298.89 276.05 309.18 260.75 303.63"/><polygon class="cls-14_target-audience-51" points="260.75 183.08 282.18 199.87 282.63 191.02 300.61 198.49 276.56 178.34 276.05 188.63 260.75 183.08"/></g><g id="add_target-audience-51"><rect class="cls-2_target-audience-51" x="102.93" y="33.75" width="87.15" height="82.33"/><rect class="cls-3_target-audience-51" x="207.54" y="33.75" width="87.15" height="82.33"/><rect class="cls-3_target-audience-51" x="309.93" y="33.75" width="87.15" height="82.33"/><path class="cls-6_target-audience-51" d="m159.34,68.87h-8.93v-8.93c0-2.15-1.76-3.9-3.9-3.9s-3.9,1.76-3.9,3.9v8.93h-8.93c-2.15,0-3.9,1.76-3.9,3.9s1.76,3.9,3.9,3.9h8.93v8.93c0,2.15,1.76,3.9,3.9,3.9s3.9-1.76,3.9-3.9v-8.93h8.93c2.15,0,3.9-1.76,3.9-3.9s-1.76-3.9-3.9-3.9Z"/></g></svg>