<svg width="1060" height="416" viewBox="0 0 1060 416" fill="none" xmlns="http://www.w3.org/2000/svg">
<rect width="1060" height="416" fill="#1E1E1E"/>
<rect width="1440" height="1024" transform="translate(-190 -299)" fill="white"/>
<g filter="url(#filter0_d_0_1)">
<mask id="path-1-inside-1_0_1" fill="white">
<path d="M1038.67 1.2053e-05H223.84V14.65C223.802 15.2247 223.547 15.7634 223.126 16.1569C222.705 16.5505 222.151 16.7694 221.575 16.7694C220.999 16.7694 220.445 16.5505 220.024 16.1569C219.603 15.7634 219.348 15.2247 219.31 14.65V1.2053e-05H20.55C16.3381 -0.00369482 12.2828 1.5967 9.20862 4.47587C6.13441 7.35504 4.27198 11.2969 4 15.5C10.0045 15.5 15.7631 17.8853 20.0089 22.1311C24.2547 26.3769 26.64 32.1355 26.64 38.14C26.64 44.1445 24.2547 49.9031 20.0089 54.1489C15.7631 58.3947 10.0045 60.78 4 60.78V81.78C10.0045 81.78 15.7631 84.1653 20.0089 88.4111C24.2547 92.6569 26.64 98.4155 26.64 104.42C26.64 110.425 24.2547 116.183 20.0089 120.429C15.7631 124.675 10.0045 127.06 4 127.06V148C9.92343 148.124 15.5623 150.565 19.7075 154.798C23.8527 159.031 26.1741 164.72 26.1741 170.645C26.1741 176.57 23.8527 182.259 19.7075 186.492C15.5623 190.725 9.92343 193.166 4 193.29V214.23C10.0045 214.23 15.7631 216.615 20.0089 220.861C24.2547 225.107 26.64 230.866 26.64 236.87C26.64 242.875 24.2547 248.633 20.0089 252.879C15.7631 257.125 10.0045 259.51 4 259.51V280.4C10.0045 280.4 15.7631 282.785 20.0089 287.031C24.2547 291.277 26.64 297.036 26.64 303.04C26.64 309.045 24.2547 314.803 20.0089 319.049C15.7631 323.295 10.0045 325.68 4 325.68V346.62C9.92343 346.744 15.5623 349.185 19.7075 353.418C23.8527 357.651 26.1741 363.34 26.1741 369.265C26.1741 375.19 23.8527 380.879 19.7075 385.112C15.5623 389.345 9.92343 391.786 4 391.91C4.24753 396.136 6.10136 400.108 9.18188 403.012C12.2624 405.916 16.3366 407.532 20.5701 407.53H219.33V390.53C219.368 389.955 219.624 389.417 220.044 389.023C220.465 388.63 221.019 388.411 221.595 388.411C222.171 388.411 222.725 388.63 223.146 389.023C223.567 389.417 223.822 389.955 223.86 390.53V407.53H1038.69C1040.87 407.531 1043.03 407.103 1045.04 406.27C1047.06 405.437 1048.89 404.215 1050.43 402.674C1051.97 401.134 1053.19 399.304 1054.03 397.291C1054.86 395.278 1055.29 393.119 1055.29 390.94V16.59C1055.29 14.4092 1054.86 12.2501 1054.02 10.2359C1053.19 8.22176 1051.96 6.39208 1050.42 4.85142C1048.87 3.31077 1047.04 2.08934 1045.03 1.25691C1043.01 0.424483 1040.85 -0.00261579 1038.67 1.2053e-05V1.2053e-05ZM223.84 381.4C223.861 381.71 223.817 382.021 223.713 382.314C223.608 382.607 223.445 382.875 223.233 383.102C223.02 383.328 222.764 383.509 222.478 383.633C222.193 383.757 221.886 383.821 221.575 383.821C221.264 383.821 220.957 383.757 220.672 383.633C220.387 383.509 220.13 383.328 219.917 383.102C219.705 382.875 219.542 382.607 219.437 382.314C219.333 382.021 219.289 381.71 219.31 381.4V359.93C219.348 359.355 219.603 358.817 220.024 358.423C220.445 358.03 220.999 357.811 221.575 357.811C222.151 357.811 222.705 358.03 223.126 358.423C223.547 358.817 223.802 359.355 223.84 359.93V381.4ZM223.84 350.84C223.802 351.415 223.547 351.953 223.126 352.347C222.705 352.74 222.151 352.959 221.575 352.959C220.999 352.959 220.445 352.74 220.024 352.347C219.603 351.953 219.348 351.415 219.31 350.84V329.4C219.289 329.09 219.333 328.779 219.437 328.486C219.542 328.193 219.705 327.925 219.917 327.698C220.13 327.471 220.387 327.291 220.672 327.167C220.957 327.043 221.264 326.979 221.575 326.979C221.886 326.979 222.193 327.043 222.478 327.167C222.764 327.291 223.02 327.471 223.233 327.698C223.445 327.925 223.608 328.193 223.713 328.486C223.817 328.779 223.861 329.09 223.84 329.4V350.84ZM223.84 320.27C223.861 320.58 223.817 320.891 223.713 321.184C223.608 321.476 223.445 321.745 223.233 321.972C223.02 322.198 222.764 322.379 222.478 322.503C222.193 322.627 221.886 322.691 221.575 322.691C221.264 322.691 220.957 322.627 220.672 322.503C220.387 322.379 220.13 322.198 219.917 321.972C219.705 321.745 219.542 321.476 219.437 321.184C219.333 320.891 219.289 320.58 219.31 320.27V298.8C219.348 298.225 219.603 297.687 220.024 297.293C220.445 296.9 220.999 296.681 221.575 296.681C222.151 296.681 222.705 296.9 223.126 297.293C223.547 297.687 223.802 298.225 223.84 298.8V320.27ZM223.84 289.71C223.802 290.285 223.547 290.823 223.126 291.217C222.705 291.61 222.151 291.829 221.575 291.829C220.999 291.829 220.445 291.61 220.024 291.217C219.603 290.823 219.348 290.285 219.31 289.71V268.24C219.289 267.93 219.333 267.619 219.437 267.326C219.542 267.033 219.705 266.765 219.917 266.538C220.13 266.311 220.387 266.131 220.672 266.007C220.957 265.883 221.264 265.819 221.575 265.819C221.886 265.819 222.193 265.883 222.478 266.007C222.764 266.131 223.02 266.311 223.233 266.538C223.445 266.765 223.608 267.033 223.713 267.326C223.817 267.619 223.861 267.93 223.84 268.24V289.71ZM223.84 259.14C223.802 259.715 223.547 260.253 223.126 260.647C222.705 261.04 222.151 261.259 221.575 261.259C220.999 261.259 220.445 261.04 220.024 260.647C219.603 260.253 219.348 259.715 219.31 259.14V237.67C219.348 237.095 219.603 236.557 220.024 236.163C220.445 235.77 220.999 235.551 221.575 235.551C222.151 235.551 222.705 235.77 223.126 236.163C223.547 236.557 223.802 237.095 223.84 237.67V259.14ZM223.84 228.57C223.861 228.88 223.817 229.191 223.713 229.484C223.608 229.777 223.445 230.045 223.233 230.272C223.02 230.498 222.764 230.679 222.478 230.803C222.193 230.927 221.886 230.991 221.575 230.991C221.264 230.991 220.957 230.927 220.672 230.803C220.387 230.679 220.13 230.498 219.917 230.272C219.705 230.045 219.542 229.777 219.437 229.484C219.333 229.191 219.289 228.88 219.31 228.57V207.1C219.348 206.525 219.603 205.987 220.024 205.593C220.445 205.2 220.999 204.981 221.575 204.981C222.151 204.981 222.705 205.2 223.126 205.593C223.547 205.987 223.802 206.525 223.84 207.1V228.57ZM223.84 198.01C223.802 198.585 223.547 199.123 223.126 199.517C222.705 199.91 222.151 200.129 221.575 200.129C220.999 200.129 220.445 199.91 220.024 199.517C219.603 199.123 219.348 198.585 219.31 198.01V176.54C219.289 176.23 219.333 175.919 219.437 175.626C219.542 175.333 219.705 175.065 219.917 174.838C220.13 174.612 220.387 174.431 220.672 174.307C220.957 174.183 221.264 174.119 221.575 174.119C221.886 174.119 222.193 174.183 222.478 174.307C222.764 174.431 223.02 174.612 223.233 174.838C223.445 175.065 223.608 175.333 223.713 175.626C223.817 175.919 223.861 176.23 223.84 176.54V198.01ZM223.84 167.44C223.861 167.75 223.817 168.061 223.713 168.354C223.608 168.647 223.445 168.915 223.233 169.142C223.02 169.369 222.764 169.549 222.478 169.673C222.193 169.797 221.886 169.861 221.575 169.861C221.264 169.861 220.957 169.797 220.672 169.673C220.387 169.549 220.13 169.369 219.917 169.142C219.705 168.915 219.542 168.647 219.437 168.354C219.333 168.061 219.289 167.75 219.31 167.44V145.97C219.348 145.395 219.603 144.857 220.024 144.463C220.445 144.07 220.999 143.851 221.575 143.851C222.151 143.851 222.705 144.07 223.126 144.463C223.547 144.857 223.802 145.395 223.84 145.97V167.44ZM223.84 136.88C223.802 137.455 223.547 137.993 223.126 138.387C222.705 138.78 222.151 138.999 221.575 138.999C220.999 138.999 220.445 138.78 220.024 138.387C219.603 137.993 219.348 137.455 219.31 136.88V115.4C219.289 115.09 219.333 114.779 219.437 114.486C219.542 114.193 219.705 113.925 219.917 113.698C220.13 113.472 220.387 113.291 220.672 113.167C220.957 113.043 221.264 112.979 221.575 112.979C221.886 112.979 222.193 113.043 222.478 113.167C222.764 113.291 223.02 113.472 223.233 113.698C223.445 113.925 223.608 114.193 223.713 114.486C223.817 114.779 223.861 115.09 223.84 115.4V136.88ZM223.84 106.31C223.802 106.885 223.547 107.423 223.126 107.817C222.705 108.21 222.151 108.429 221.575 108.429C220.999 108.429 220.445 108.21 220.024 107.817C219.603 107.423 219.348 106.885 219.31 106.31V84.84C219.348 84.2653 219.603 83.7266 220.024 83.3331C220.445 82.9395 220.999 82.7206 221.575 82.7206C222.151 82.7206 222.705 82.9395 223.126 83.3331C223.547 83.7266 223.802 84.2653 223.84 84.84V106.31ZM223.84 75.74C223.861 76.0501 223.817 76.3611 223.713 76.6538C223.608 76.9465 223.445 77.2146 223.233 77.4416C223.02 77.6685 222.764 77.8494 222.478 77.9731C222.193 78.0968 221.886 78.1606 221.575 78.1606C221.264 78.1606 220.957 78.0968 220.672 77.9731C220.387 77.8494 220.13 77.6685 219.917 77.4416C219.705 77.2146 219.542 76.9465 219.437 76.6538C219.333 76.3611 219.289 76.0501 219.31 75.74V54.27C219.348 53.6953 219.603 53.1566 220.024 52.7631C220.445 52.3695 220.999 52.1506 221.575 52.1506C222.151 52.1506 222.705 52.3695 223.126 52.7631C223.547 53.1566 223.802 53.6953 223.84 54.27V75.74ZM223.84 45.18C223.802 45.7547 223.547 46.2934 223.126 46.6869C222.705 47.0805 222.151 47.2994 221.575 47.2994C220.999 47.2994 220.445 47.0805 220.024 46.6869C219.603 46.2934 219.348 45.7547 219.31 45.18V23.71C219.289 23.3999 219.333 23.0889 219.437 22.7962C219.542 22.5035 219.705 22.2354 219.917 22.0084C220.13 21.7815 220.387 21.6006 220.672 21.4769C220.957 21.3532 221.264 21.2894 221.575 21.2894C221.886 21.2894 222.193 21.3532 222.478 21.4769C222.764 21.6006 223.02 21.7815 223.233 22.0084C223.445 22.2354 223.608 22.5035 223.713 22.7962C223.817 23.0889 223.861 23.3999 223.84 23.71V45.18Z"/>
</mask>
<path d="M1038.67 1.2053e-05H223.84V14.65C223.802 15.2247 223.547 15.7634 223.126 16.1569C222.705 16.5505 222.151 16.7694 221.575 16.7694C220.999 16.7694 220.445 16.5505 220.024 16.1569C219.603 15.7634 219.348 15.2247 219.31 14.65V1.2053e-05H20.55C16.3381 -0.00369482 12.2828 1.5967 9.20862 4.47587C6.13441 7.35504 4.27198 11.2969 4 15.5C10.0045 15.5 15.7631 17.8853 20.0089 22.1311C24.2547 26.3769 26.64 32.1355 26.64 38.14C26.64 44.1445 24.2547 49.9031 20.0089 54.1489C15.7631 58.3947 10.0045 60.78 4 60.78V81.78C10.0045 81.78 15.7631 84.1653 20.0089 88.4111C24.2547 92.6569 26.64 98.4155 26.64 104.42C26.64 110.425 24.2547 116.183 20.0089 120.429C15.7631 124.675 10.0045 127.06 4 127.06V148C9.92343 148.124 15.5623 150.565 19.7075 154.798C23.8527 159.031 26.1741 164.72 26.1741 170.645C26.1741 176.57 23.8527 182.259 19.7075 186.492C15.5623 190.725 9.92343 193.166 4 193.29V214.23C10.0045 214.23 15.7631 216.615 20.0089 220.861C24.2547 225.107 26.64 230.866 26.64 236.87C26.64 242.875 24.2547 248.633 20.0089 252.879C15.7631 257.125 10.0045 259.51 4 259.51V280.4C10.0045 280.4 15.7631 282.785 20.0089 287.031C24.2547 291.277 26.64 297.036 26.64 303.04C26.64 309.045 24.2547 314.803 20.0089 319.049C15.7631 323.295 10.0045 325.68 4 325.68V346.62C9.92343 346.744 15.5623 349.185 19.7075 353.418C23.8527 357.651 26.1741 363.34 26.1741 369.265C26.1741 375.19 23.8527 380.879 19.7075 385.112C15.5623 389.345 9.92343 391.786 4 391.91C4.24753 396.136 6.10136 400.108 9.18188 403.012C12.2624 405.916 16.3366 407.532 20.5701 407.53H219.33V390.53C219.368 389.955 219.624 389.417 220.044 389.023C220.465 388.63 221.019 388.411 221.595 388.411C222.171 388.411 222.725 388.63 223.146 389.023C223.567 389.417 223.822 389.955 223.86 390.53V407.53H1038.69C1040.87 407.531 1043.03 407.103 1045.04 406.27C1047.06 405.437 1048.89 404.215 1050.43 402.674C1051.97 401.134 1053.19 399.304 1054.03 397.291C1054.86 395.278 1055.29 393.119 1055.29 390.94V16.59C1055.29 14.4092 1054.86 12.2501 1054.02 10.2359C1053.19 8.22176 1051.96 6.39208 1050.42 4.85142C1048.87 3.31077 1047.04 2.08934 1045.03 1.25691C1043.01 0.424483 1040.85 -0.00261579 1038.67 1.2053e-05V1.2053e-05ZM223.84 381.4C223.861 381.71 223.817 382.021 223.713 382.314C223.608 382.607 223.445 382.875 223.233 383.102C223.02 383.328 222.764 383.509 222.478 383.633C222.193 383.757 221.886 383.821 221.575 383.821C221.264 383.821 220.957 383.757 220.672 383.633C220.387 383.509 220.13 383.328 219.917 383.102C219.705 382.875 219.542 382.607 219.437 382.314C219.333 382.021 219.289 381.71 219.31 381.4V359.93C219.348 359.355 219.603 358.817 220.024 358.423C220.445 358.03 220.999 357.811 221.575 357.811C222.151 357.811 222.705 358.03 223.126 358.423C223.547 358.817 223.802 359.355 223.84 359.93V381.4ZM223.84 350.84C223.802 351.415 223.547 351.953 223.126 352.347C222.705 352.74 222.151 352.959 221.575 352.959C220.999 352.959 220.445 352.74 220.024 352.347C219.603 351.953 219.348 351.415 219.31 350.84V329.4C219.289 329.09 219.333 328.779 219.437 328.486C219.542 328.193 219.705 327.925 219.917 327.698C220.13 327.471 220.387 327.291 220.672 327.167C220.957 327.043 221.264 326.979 221.575 326.979C221.886 326.979 222.193 327.043 222.478 327.167C222.764 327.291 223.02 327.471 223.233 327.698C223.445 327.925 223.608 328.193 223.713 328.486C223.817 328.779 223.861 329.09 223.84 329.4V350.84ZM223.84 320.27C223.861 320.58 223.817 320.891 223.713 321.184C223.608 321.476 223.445 321.745 223.233 321.972C223.02 322.198 222.764 322.379 222.478 322.503C222.193 322.627 221.886 322.691 221.575 322.691C221.264 322.691 220.957 322.627 220.672 322.503C220.387 322.379 220.13 322.198 219.917 321.972C219.705 321.745 219.542 321.476 219.437 321.184C219.333 320.891 219.289 320.58 219.31 320.27V298.8C219.348 298.225 219.603 297.687 220.024 297.293C220.445 296.9 220.999 296.681 221.575 296.681C222.151 296.681 222.705 296.9 223.126 297.293C223.547 297.687 223.802 298.225 223.84 298.8V320.27ZM223.84 289.71C223.802 290.285 223.547 290.823 223.126 291.217C222.705 291.61 222.151 291.829 221.575 291.829C220.999 291.829 220.445 291.61 220.024 291.217C219.603 290.823 219.348 290.285 219.31 289.71V268.24C219.289 267.93 219.333 267.619 219.437 267.326C219.542 267.033 219.705 266.765 219.917 266.538C220.13 266.311 220.387 266.131 220.672 266.007C220.957 265.883 221.264 265.819 221.575 265.819C221.886 265.819 222.193 265.883 222.478 266.007C222.764 266.131 223.02 266.311 223.233 266.538C223.445 266.765 223.608 267.033 223.713 267.326C223.817 267.619 223.861 267.93 223.84 268.24V289.71ZM223.84 259.14C223.802 259.715 223.547 260.253 223.126 260.647C222.705 261.04 222.151 261.259 221.575 261.259C220.999 261.259 220.445 261.04 220.024 260.647C219.603 260.253 219.348 259.715 219.31 259.14V237.67C219.348 237.095 219.603 236.557 220.024 236.163C220.445 235.77 220.999 235.551 221.575 235.551C222.151 235.551 222.705 235.77 223.126 236.163C223.547 236.557 223.802 237.095 223.84 237.67V259.14ZM223.84 228.57C223.861 228.88 223.817 229.191 223.713 229.484C223.608 229.777 223.445 230.045 223.233 230.272C223.02 230.498 222.764 230.679 222.478 230.803C222.193 230.927 221.886 230.991 221.575 230.991C221.264 230.991 220.957 230.927 220.672 230.803C220.387 230.679 220.13 230.498 219.917 230.272C219.705 230.045 219.542 229.777 219.437 229.484C219.333 229.191 219.289 228.88 219.31 228.57V207.1C219.348 206.525 219.603 205.987 220.024 205.593C220.445 205.2 220.999 204.981 221.575 204.981C222.151 204.981 222.705 205.2 223.126 205.593C223.547 205.987 223.802 206.525 223.84 207.1V228.57ZM223.84 198.01C223.802 198.585 223.547 199.123 223.126 199.517C222.705 199.91 222.151 200.129 221.575 200.129C220.999 200.129 220.445 199.91 220.024 199.517C219.603 199.123 219.348 198.585 219.31 198.01V176.54C219.289 176.23 219.333 175.919 219.437 175.626C219.542 175.333 219.705 175.065 219.917 174.838C220.13 174.612 220.387 174.431 220.672 174.307C220.957 174.183 221.264 174.119 221.575 174.119C221.886 174.119 222.193 174.183 222.478 174.307C222.764 174.431 223.02 174.612 223.233 174.838C223.445 175.065 223.608 175.333 223.713 175.626C223.817 175.919 223.861 176.23 223.84 176.54V198.01ZM223.84 167.44C223.861 167.75 223.817 168.061 223.713 168.354C223.608 168.647 223.445 168.915 223.233 169.142C223.02 169.369 222.764 169.549 222.478 169.673C222.193 169.797 221.886 169.861 221.575 169.861C221.264 169.861 220.957 169.797 220.672 169.673C220.387 169.549 220.13 169.369 219.917 169.142C219.705 168.915 219.542 168.647 219.437 168.354C219.333 168.061 219.289 167.75 219.31 167.44V145.97C219.348 145.395 219.603 144.857 220.024 144.463C220.445 144.07 220.999 143.851 221.575 143.851C222.151 143.851 222.705 144.07 223.126 144.463C223.547 144.857 223.802 145.395 223.84 145.97V167.44ZM223.84 136.88C223.802 137.455 223.547 137.993 223.126 138.387C222.705 138.78 222.151 138.999 221.575 138.999C220.999 138.999 220.445 138.78 220.024 138.387C219.603 137.993 219.348 137.455 219.31 136.88V115.4C219.289 115.09 219.333 114.779 219.437 114.486C219.542 114.193 219.705 113.925 219.917 113.698C220.13 113.472 220.387 113.291 220.672 113.167C220.957 113.043 221.264 112.979 221.575 112.979C221.886 112.979 222.193 113.043 222.478 113.167C222.764 113.291 223.02 113.472 223.233 113.698C223.445 113.925 223.608 114.193 223.713 114.486C223.817 114.779 223.861 115.09 223.84 115.4V136.88ZM223.84 106.31C223.802 106.885 223.547 107.423 223.126 107.817C222.705 108.21 222.151 108.429 221.575 108.429C220.999 108.429 220.445 108.21 220.024 107.817C219.603 107.423 219.348 106.885 219.31 106.31V84.84C219.348 84.2653 219.603 83.7266 220.024 83.3331C220.445 82.9395 220.999 82.7206 221.575 82.7206C222.151 82.7206 222.705 82.9395 223.126 83.3331C223.547 83.7266 223.802 84.2653 223.84 84.84V106.31ZM223.84 75.74C223.861 76.0501 223.817 76.3611 223.713 76.6538C223.608 76.9465 223.445 77.2146 223.233 77.4416C223.02 77.6685 222.764 77.8494 222.478 77.9731C222.193 78.0968 221.886 78.1606 221.575 78.1606C221.264 78.1606 220.957 78.0968 220.672 77.9731C220.387 77.8494 220.13 77.6685 219.917 77.4416C219.705 77.2146 219.542 76.9465 219.437 76.6538C219.333 76.3611 219.289 76.0501 219.31 75.74V54.27C219.348 53.6953 219.603 53.1566 220.024 52.7631C220.445 52.3695 220.999 52.1506 221.575 52.1506C222.151 52.1506 222.705 52.3695 223.126 52.7631C223.547 53.1566 223.802 53.6953 223.84 54.27V75.74ZM223.84 45.18C223.802 45.7547 223.547 46.2934 223.126 46.6869C222.705 47.0805 222.151 47.2994 221.575 47.2994C220.999 47.2994 220.445 47.0805 220.024 46.6869C219.603 46.2934 219.348 45.7547 219.31 45.18V23.71C219.289 23.3999 219.333 23.0889 219.437 22.7962C219.542 22.5035 219.705 22.2354 219.917 22.0084C220.13 21.7815 220.387 21.6006 220.672 21.4769C220.957 21.3532 221.264 21.2894 221.575 21.2894C221.886 21.2894 222.193 21.3532 222.478 21.4769C222.764 21.6006 223.02 21.7815 223.233 22.0084C223.445 22.2354 223.608 22.5035 223.713 22.7962C223.817 23.0889 223.861 23.3999 223.84 23.71V45.18Z" fill="white" stroke="#00D1FF" stroke-width="2.2" mask="url(#path-1-inside-1_0_1)"/>
<path d="M67.09 40.3H174.59V43.73H67.09V40.3Z" fill="black" stroke="black" stroke-width="0.1"/>
<path d="M67.09 47.6899H174.59V49.4199H67.09V47.6899Z" fill="black" stroke="black" stroke-width="0.1"/>
<path d="M79.9904 53.8398H174.59V58.8198H79.9904V53.8398Z" fill="black" stroke="black" stroke-width="0.1"/>
<path d="M79.9904 63.25H174.59V64.98H79.9904V63.25Z" fill="black" stroke="black" stroke-width="0.1"/>
<path d="M79.9904 69.9499H174.59V73.8499H79.9904V69.9499Z" fill="black" stroke="black" stroke-width="0.1"/>
<path d="M79.9904 76.9899H174.59V78.7199H79.9904V76.9899Z" fill="black" stroke="black" stroke-width="0.1"/>
<path d="M79.9904 81.1298H174.59V82.8598H79.9904V81.1298Z" fill="black" stroke="black" stroke-width="0.1"/>
<path d="M79.9904 85.3398H174.59V89.5898H79.9904V85.3398Z" fill="black" stroke="black" stroke-width="0.1"/>
<path d="M79.9904 94.3798H174.59V96.1098H79.9904V94.3798Z" fill="black" stroke="black" stroke-width="0.1"/>
<path d="M79.9904 102.16H174.59V103.89H79.9904V102.16Z" fill="black" stroke="black" stroke-width="0.1"/>
<path d="M79.9904 100.96H174.59V101.5H79.9904V100.96Z" fill="black" stroke="black" stroke-width="0.1"/>
<path d="M79.9904 114.43H174.59V114.97H79.9904V114.43Z" fill="black" stroke="black" stroke-width="0.1"/>
<path d="M79.9904 146.43H174.59V146.97H79.9904V146.43Z" fill="black" stroke="black" stroke-width="0.1"/>
<path d="M79.9904 169.47H174.59V170.01H79.9904V169.47Z" fill="black" stroke="black" stroke-width="0.1"/>
<path d="M79.9904 285.3H174.59V285.84H79.9904V285.3Z" fill="black" stroke="black" stroke-width="0.1"/>
<path d="M79.9904 275.21H174.59V275.75H79.9904V275.21Z" fill="black" stroke="black" stroke-width="0.1"/>
<path d="M79.9904 323.12H174.59V323.66H79.9904V323.12Z" fill="black" stroke="black" stroke-width="0.1"/>
<path d="M79.9904 347.07H174.59V347.61H79.9904V347.07Z" fill="black" stroke="black" stroke-width="0.1"/>
<path d="M79.9904 253.03H174.59V253.57H79.9904V253.03Z" fill="black" stroke="black" stroke-width="0.1"/>
<path d="M79.9904 60.3898H174.59V60.9298H79.9904V60.3898Z" fill="black" stroke="black" stroke-width="0.1"/>
<path d="M79.9904 108.22H174.59V113.41H79.9904V108.22Z" fill="black" stroke="black" stroke-width="0.1"/>
<path d="M79.9904 117.73H174.59V119.46H79.9904V117.73Z" fill="black" stroke="black" stroke-width="0.1"/>
<path d="M79.9904 175.19H174.59V176.92H79.9904V175.19Z" fill="black" stroke="black" stroke-width="0.1"/>
<path d="M79.9904 121.47H174.59V123.2H79.9904V121.47Z" fill="black" stroke="black" stroke-width="0.1"/>
<path d="M79.9904 125.51H174.59V127.24H79.9904V125.51Z" fill="black" stroke="black" stroke-width="0.1"/>
<path d="M79.9904 133.29H174.59V135.02H79.9904V133.29Z" fill="black" stroke="black" stroke-width="0.1"/>
<path d="M79.9904 139.02H174.59V144.86H79.9904V139.02Z" fill="black" stroke="black" stroke-width="0.1"/>
<path d="M79.9904 148.86H174.59V150.59H79.9904V148.86Z" fill="black" stroke="black" stroke-width="0.1"/>
<path d="M79.9904 156.64H174.59V158.37H79.9904V156.64Z" fill="black" stroke="black" stroke-width="0.1"/>
<path d="M79.9904 162.36H174.59V168.21H79.9904V162.36Z" fill="black" stroke="black" stroke-width="0.1"/>
<path d="M79.9904 172.21H174.59V173.94H79.9904V172.21Z" fill="black" stroke="black" stroke-width="0.1"/>
<path d="M79.9904 182H174.59V183.73H79.9904V182Z" fill="black" stroke="black" stroke-width="0.1"/>
<path d="M79.9904 186.15H174.59V191.12H79.9904V186.15Z" fill="black" stroke="black" stroke-width="0.1"/>
<path d="M66.8195 195.55H174.59V197.28H66.8195V195.55Z" fill="black" stroke="black" stroke-width="0.1"/>
<path d="M66.8195 202.88H174.59V204.61H66.8195V202.88Z" fill="black" stroke="black" stroke-width="0.1"/>
<path d="M79.9904 211.12H174.59V212.85H79.9904V211.12Z" fill="black" stroke="black" stroke-width="0.1"/>
<path d="M79.9904 214.14H174.59V215.87H79.9904V214.14Z" fill="black" stroke="black" stroke-width="0.1"/>
<path d="M79.9904 218.97H174.59V222.11H79.9904V218.97Z" fill="black" stroke="black" stroke-width="0.1"/>
<path d="M79.9904 226.68H174.59V228.41H79.9904V226.68Z" fill="black" stroke="black" stroke-width="0.1"/>
<path d="M79.9904 232.77H174.59V237.89H79.9904V232.77Z" fill="black" stroke="black" stroke-width="0.1"/>
<path d="M79.9904 242.25H174.59V243.98H79.9904V242.25Z" fill="black" stroke="black" stroke-width="0.1"/>
<path d="M79.9904 250.03H174.59V251.76H79.9904V250.03Z" fill="black" stroke="black" stroke-width="0.1"/>
<path d="M79.9904 256.48H174.59V260.87H79.9904V256.48Z" fill="black" stroke="black" stroke-width="0.1"/>
<path d="M79.9904 265.59H174.59V267.32H79.9904V265.59Z" fill="black" stroke="black" stroke-width="0.1"/>
<path d="M79.9904 271.36H174.59V273.09H79.9904V271.36Z" fill="black" stroke="black" stroke-width="0.1"/>
<path d="M79.9904 281.16H174.59V282.89H79.9904V281.16Z" fill="black" stroke="black" stroke-width="0.1"/>
<path d="M79.9904 292.08H174.59V295.61H79.9904V292.08Z" fill="black" stroke="black" stroke-width="0.1"/>
<path d="M79.9904 296.72H174.59V298.45H79.9904V296.72Z" fill="black" stroke="black" stroke-width="0.1"/>
<path d="M79.9904 306.52H174.59V308.25H79.9904V306.52Z" fill="black" stroke="black" stroke-width="0.1"/>
<path d="M79.9904 311.37H174.59V314.93H79.9904V311.37Z" fill="black" stroke="black" stroke-width="0.1"/>
<path d="M79.9904 320.07H174.59V321.8H79.9904V320.07Z" fill="black" stroke="black" stroke-width="0.1"/>
<path d="M79.9904 327.85H174.59V329.58H79.9904V327.85Z" fill="black" stroke="black" stroke-width="0.1"/>
<path d="M79.9904 334.72H174.59V338.28H79.9904V334.72Z" fill="black" stroke="black" stroke-width="0.1"/>
<path d="M79.9904 343.42H174.59V345.15H79.9904V343.42Z" fill="black" stroke="black" stroke-width="0.1"/>
<path d="M79.9904 351.2H174.59V356.02H79.9904V351.2Z" fill="black" stroke="black" stroke-width="0.1"/>
<path d="M66.8195 358.98H174.59V360.71H66.8195V358.98Z" fill="black" stroke="black" stroke-width="0.1"/>
<path d="M66.8195 366.76H174.59V368.49H66.8195V366.76Z" fill="black" stroke="black" stroke-width="0.1"/>
<path d="M67.8295 36.3898V32.3199V32.1928L67.9161 32.2858L68.5959 33.0155C69.5259 33.9855 70.3303 34.7746 71.1132 35.3214C71.8952 35.8675 72.6528 36.1699 73.4895 36.1699H73.4912L73.4912 36.1699C73.8512 36.1825 74.2098 36.1183 74.5431 35.9818C74.8763 35.8452 75.1768 35.6393 75.4244 35.3778C75.672 35.1162 75.8611 34.805 75.9793 34.4648C76.0974 34.1245 76.1419 33.7631 76.1097 33.4043L76.1093 33.3997L76.1095 33.3997C76.1127 32.4767 75.7926 31.5821 75.2054 30.871L74.431 31.2181C74.8971 31.7731 75.1614 32.4706 75.1794 33.1964M67.8295 36.3898L75.1295 33.1999M67.8295 36.3898H66.9286M67.8295 36.3898L66.7695 30.5999L66.7705 30.6499H66.8205M75.1794 33.1964C75.1795 33.1971 75.1795 33.1979 75.1795 33.1987L75.1295 33.1999M75.1794 33.1964C75.1794 33.1956 75.1793 33.1949 75.1792 33.1941L75.1295 33.1999M75.1794 33.1964C75.2082 33.4472 75.1804 33.7013 75.098 33.94C75.0155 34.1793 74.8801 34.3971 74.7021 34.5772C74.524 34.7572 74.3077 34.895 74.0692 34.9802C73.8315 35.0652 73.5778 35.0958 73.3267 35.0698M75.1295 33.1999C75.1578 33.444 75.1309 33.6913 75.0508 33.9236C74.9706 34.156 74.8393 34.3673 74.6665 34.542C74.4937 34.7168 74.2838 34.8504 74.0524 34.9331C73.821 35.0158 73.5739 35.0455 73.3295 35.0199M73.3267 35.0698C73.3275 35.0698 73.3283 35.0698 73.3291 35.0699L73.3295 35.0199M73.3267 35.0698C72.6232 35.0641 71.9711 34.7904 71.2183 34.2274C70.4658 33.6646 69.6082 32.8092 68.4937 31.6347M73.3267 35.0698C73.3259 35.0697 73.3251 35.0697 73.3243 35.0696L73.3295 35.0199M73.3295 35.0199L68.4937 31.6347M68.4937 31.6347L68.4942 31.6352L68.5295 31.5999L68.4933 31.6343C68.4934 31.6344 68.4936 31.6346 68.4937 31.6347ZM68.4937 31.6347L67.5088 30.6499M68.4937 31.6347L67.5295 30.5999M67.5088 30.6499H67.5295V30.5999M67.5088 30.6499L67.4942 30.6352L67.5295 30.5999M67.5088 30.6499H66.8205M67.5295 30.5999H66.8195L66.8205 30.6499M66.8205 30.6499L66.9286 36.3898M66.9286 36.3898H66.8795V36.4398L66.9295 36.4389L66.9286 36.3898ZM74.3835 31.2394C74.3723 31.2261 74.361 31.2129 74.3495 31.1999L74.3972 31.1785L74.3835 31.2394Z" fill="black" stroke="black" stroke-width="0.1"/>
<path d="M73.7494 82.69C73.2747 82.69 72.9088 82.8715 72.626 83.1892C72.3448 83.505 72.1472 83.9536 72.0013 84.4868L71.998 84.4991L73.7195 85.89L73.7165 85.9399C73.7166 85.9399 73.7167 85.9399 73.7167 85.9399C73.9284 85.9527 74.1404 85.9196 74.3381 85.8428C74.5358 85.766 74.7146 85.6473 74.8621 85.4949C75.0096 85.3424 75.1224 85.1598 75.1927 84.9597C75.2625 84.7609 75.2887 84.5496 75.2697 84.3398C75.2876 84.1307 75.2621 83.9201 75.1946 83.7214C75.1266 83.5211 75.0177 83.3373 74.8746 83.1816C74.7315 83.0259 74.5575 82.9017 74.3638 82.8171C74.1701 82.7324 73.9608 82.6891 73.7494 82.69ZM73.7494 82.69C73.7495 82.69 73.7495 82.69 73.7495 82.69V82.74L73.7493 82.69C73.7494 82.69 73.7494 82.69 73.7494 82.69ZM71.5596 83.04L71.6063 83.0578C71.763 82.6471 72.0381 82.2921 72.3967 82.0379C72.7549 81.7841 73.1803 81.6421 73.6192 81.63C73.963 81.6443 74.3003 81.729 74.6102 81.8787C74.9206 82.0287 75.1969 82.2407 75.4221 82.5017C75.6473 82.7627 75.8165 83.0672 75.9193 83.3962C76.0221 83.7253 76.0564 84.0719 76.0199 84.4147L76.0185 84.4145L76.02 84.4263C76.061 84.7458 76.0349 85.0704 75.9436 85.3793C75.8523 85.6882 75.6978 85.9747 75.4897 86.2206C75.2816 86.4664 75.0244 86.6663 74.7348 86.8074C74.4456 86.9483 74.1304 87.0275 73.809 87.04C73.3508 87.0336 72.9051 86.8893 72.5301 86.626C72.1548 86.3624 71.8677 85.9917 71.7064 85.5624L71.6596 85.58L71.6117 85.5656C71.4597 86.0744 71.1498 86.5215 70.7268 86.8423C70.3042 87.1628 69.7906 87.3406 69.2604 87.3499C68.884 87.3304 68.5155 87.2346 68.1774 87.0683C67.8387 86.9017 67.5374 86.6679 67.292 86.3812C67.0466 86.0944 66.8623 85.7607 66.75 85.4003C66.6378 85.04 66.6001 84.6605 66.6392 84.2852L66.6394 84.2852L66.6395 84.2805C66.6593 82.4204 67.7938 81.2702 69.0992 81.27C69.6376 81.2772 70.1602 81.4534 70.5931 81.7737C71.0261 82.094 71.3476 82.5423 71.512 83.0552L71.5596 83.04ZM69.1592 86.21H69.1596C69.728 86.21 70.1541 86.012 70.4814 85.655C70.8067 85.3002 71.0319 84.7914 71.2077 84.1736L71.2108 84.1626L71.2088 84.1512C71.1273 83.6906 70.8906 83.2717 70.5383 82.9641C70.1859 82.6565 69.7389 82.4786 69.2715 82.46L69.2712 82.46C69.0244 82.4519 68.7787 82.4961 68.5503 82.5897C68.3218 82.6832 68.1157 82.8241 67.9456 83.003C67.7755 83.1819 67.6451 83.3948 67.5631 83.6276C67.4815 83.8591 67.4496 84.1052 67.4694 84.3498C67.4487 84.5838 67.4766 84.8197 67.5511 85.0425C67.6261 85.2667 67.7468 85.473 67.9056 85.6482C68.0643 85.8234 68.2577 85.9638 68.4735 86.0605C68.6892 86.1572 68.9227 86.2081 69.1592 86.21Z" fill="black" stroke="black" stroke-width="0.1"/>
<path d="M75.1997 98.7601C75.2048 98.2147 74.9753 97.748 74.5739 97.4187C74.1739 97.0905 73.6057 96.9005 72.9331 96.8998C72.6767 96.865 72.4157 96.8856 72.1679 96.9602C71.9189 97.0352 71.689 97.1628 71.4939 97.3346C71.2987 97.5063 71.1428 97.7181 71.0368 97.9555C70.931 98.1925 70.8775 98.4496 70.8797 98.7091C70.8655 99.082 70.9534 99.4516 71.1339 99.7783C71.3144 100.105 71.5807 100.376 71.904 100.563C72.0468 100.651 72.2126 100.696 72.3805 100.69C73.1701 100.69 73.8728 100.544 74.3798 100.23C74.8896 99.9139 75.1996 99.4284 75.1997 98.7601ZM75.1997 98.7601C75.1997 98.7601 75.1997 98.7602 75.1997 98.7603L75.1497 98.7598H75.1997C75.1997 98.7599 75.1997 98.76 75.1997 98.7601ZM67.5951 96.5478C67.5675 96.8662 67.5691 97.1865 67.5999 97.5047L67.5999 97.5047L67.6 97.5058C67.6875 98.2343 68.0037 98.9163 68.5031 99.4539L68.5031 99.4539L68.5034 99.4543C69.1568 100.143 70.0311 100.58 70.9739 100.69L71.0296 100.696V100.64V100.59V100.566L71.0111 100.551C70.6964 100.296 70.4443 99.9725 70.2742 99.605C70.104 99.2375 70.0204 98.8358 70.0297 98.431L70.0296 98.4288C70.0223 98.0692 70.0894 97.712 70.2267 97.3795C70.3639 97.0471 70.5685 96.7466 70.8273 96.4969C71.0862 96.2472 71.3938 96.0537 71.7311 95.9286C72.0683 95.8035 72.4278 95.7494 72.7869 95.7698L72.7869 95.77L72.7916 95.7698C73.2069 95.754 73.6211 95.8218 74.0096 95.9692C74.3982 96.1167 74.7531 96.3407 75.0534 96.6281C75.3536 96.9155 75.5929 97.2602 75.7572 97.642C75.9215 98.0236 76.0074 98.4344 76.0097 98.8499C76.0097 99.7748 75.6341 100.51 74.9719 101.015C74.3081 101.521 73.3525 101.8 72.1897 101.8V101.8L72.187 101.8C71.4057 101.843 70.6238 101.726 69.8892 101.457C69.155 101.187 68.4833 100.772 67.915 100.234C67.2315 99.5115 66.8044 98.584 66.6994 97.5946L66.6995 97.5945L66.699 97.5915C66.6387 97.2348 66.6147 96.873 66.6276 96.5117L67.5951 96.5478Z" fill="black" stroke="black" stroke-width="0.1"/>
<path d="M67.2905 108.454L68.1288 108.842C67.78 109.443 67.5877 110.123 67.57 110.819L67.57 110.819V110.82C67.57 111.626 67.8238 112.163 68.1835 112.495C68.5421 112.827 69.0003 112.95 69.4006 112.94C70.0582 112.94 70.5305 112.638 70.8365 112.183C71.1411 111.73 71.2799 111.127 71.2799 110.52V109.88H72.12V110.52C72.12 110.977 72.2366 111.499 72.4939 111.909C72.7521 112.32 73.1541 112.62 73.7199 112.62C74.1005 112.62 74.4595 112.499 74.7233 112.227C74.9872 111.956 75.1499 111.539 75.15 110.96L75.1499 110.959C75.1327 110.312 74.9342 109.684 74.5775 109.145L75.3794 108.86C75.8254 109.559 76.0617 110.371 76.0599 111.2V111.2C76.0599 112.095 75.7932 112.739 75.3949 113.159C74.9966 113.579 74.4629 113.78 73.9205 113.78C73.4356 113.77 72.9671 113.603 72.5859 113.303C72.2047 113.003 71.9317 112.586 71.8083 112.117L71.76 112.13L71.7107 112.122C71.6183 112.668 71.3357 113.164 70.9128 113.523C70.49 113.881 69.9542 114.078 69.4 114.08C68.6785 114.08 68.0022 113.798 67.5059 113.246C67.0095 112.695 66.69 111.87 66.69 110.78L66.69 110.779C66.6803 109.965 66.8877 109.162 67.2905 108.454Z" fill="black" stroke="black" stroke-width="0.1"/>
<path d="M66.8195 123.208V122.03L74.8674 125.995L74.9395 126.03V125.95V121.51H75.84L75.8989 127.19H75.1409L66.8195 123.208Z" fill="black" stroke="black" stroke-width="0.1"/>
<path d="M67.8295 135.78V139.86H66.9286L66.8205 134.07H67.5088L68.4938 135.055C69.6083 136.224 70.4658 137.077 71.2183 137.64C71.9711 138.203 72.6231 138.479 73.3265 138.49C73.5776 138.516 73.8314 138.485 74.0692 138.4C74.3077 138.315 74.524 138.177 74.7021 137.997C74.8801 137.817 75.0155 137.6 75.098 137.36C75.1804 137.121 75.2082 136.867 75.1794 136.616C75.1526 135.907 74.8886 135.228 74.4308 134.688L75.2056 134.331C75.7948 135.045 76.1151 135.943 76.1095 136.87L76.1093 136.87L76.1097 136.875C76.1421 137.233 76.0976 137.594 75.9794 137.934C75.8612 138.273 75.6719 138.584 75.4241 138.845C75.1763 139.105 74.8757 139.31 74.5425 139.446C74.2092 139.581 73.8509 139.644 73.4914 139.63L73.4915 139.63H73.4895C72.6528 139.63 71.8951 139.328 71.1131 138.783C70.3302 138.237 69.5259 137.451 68.596 136.486L67.9163 135.746L67.8295 135.652V135.78Z" fill="black" stroke="black" stroke-width="0.1"/>
<path d="M70.5304 146.64C68.1404 146.64 66.6104 147.89 66.6104 149.89C66.6191 150.302 66.7107 150.708 66.8796 151.084C67.0486 151.459 67.2915 151.797 67.5939 152.077C67.8962 152.357 68.2519 152.573 68.6395 152.713C69.0272 152.853 69.4389 152.913 69.8503 152.89L70.5304 146.64ZM70.5304 146.64C72.0609 146.59 73.5491 147.147 74.6704 148.19L70.5304 146.64ZM66.9252 151.063C66.7591 150.694 66.669 150.294 66.6604 149.889C66.6605 148.903 67.0371 148.106 67.706 147.553C68.376 147 69.3436 146.69 70.5304 146.69L70.532 146.69C72.0488 146.64 73.5237 147.192 74.6351 148.225C75.3866 149.023 75.8557 150.045 75.9707 151.135L75.9706 151.135L75.971 151.138C76.016 151.419 76.0392 151.704 76.0404 151.989L75.1319 151.971C75.1401 151.67 75.1193 151.369 75.0698 151.072C74.9543 150.244 74.5675 149.478 73.9698 148.893C73.372 148.308 72.5969 147.938 71.7662 147.84L71.7604 147.89L71.7296 147.929C72.193 148.291 72.528 148.793 72.6856 149.359C72.8432 149.926 72.815 150.528 72.6051 151.077C72.3953 151.627 72.0148 152.094 71.5195 152.412C71.0243 152.729 70.4405 152.879 69.8537 152.84L69.8537 152.84L69.8476 152.84C69.4429 152.862 69.0378 152.803 68.6565 152.666C68.2751 152.529 67.9253 152.316 67.6278 152.041C67.3304 151.765 67.0915 151.433 66.9252 151.063ZM68.1526 151.202C68.5515 151.527 69.1148 151.709 69.7772 151.71L70.7504 147.99C70.5844 147.891 70.3933 147.842 70.2003 147.85V147.8C70.2 147.8 70.1997 147.8 70.1994 147.8C69.4376 147.8 68.7692 147.982 68.2898 148.329C67.8085 148.678 67.5204 149.193 67.5204 149.85C67.5204 150.41 67.7522 150.877 68.1526 151.202ZM71.6112 148.692C71.4069 148.37 71.117 148.112 70.7741 147.946L69.7804 151.66C70.0466 151.695 70.3171 151.671 70.5734 151.592C70.8297 151.512 71.0657 151.378 71.2653 151.198C71.4648 151.018 71.6231 150.798 71.7292 150.551C71.8354 150.305 71.887 150.038 71.8804 149.77L71.9304 149.769C71.9304 149.769 71.9304 149.769 71.9304 149.769C71.9263 149.387 71.8158 149.014 71.6112 148.692Z" fill="black" stroke="black" stroke-width="0.1"/>
<path d="M74.7894 162.27L74.8736 162.27L74.8335 162.196L74.0041 160.663L74.8539 160.448L75.8995 162.402V163.34H66.8195V162.24L74.7894 162.27Z" fill="black" stroke="black" stroke-width="0.1"/>
<path d="M67.8295 253.41V257.49H66.9286L66.8205 251.7H67.5088L68.4938 252.685C69.6083 253.854 70.4658 254.707 71.2183 255.27C71.9712 255.833 72.6232 256.109 73.3267 256.12C73.5784 256.144 73.8323 256.112 74.07 256.026C74.3084 255.939 74.5245 255.801 74.7023 255.62C74.8801 255.439 75.0152 255.221 75.0977 254.981C75.18 254.742 75.2079 254.487 75.1794 254.236C75.1503 253.53 74.8865 252.855 74.4309 252.318L75.2056 251.961C75.7948 252.675 76.1151 253.573 76.1095 254.5L76.1093 254.5L76.1097 254.504C76.1421 254.863 76.0976 255.224 75.9794 255.563C75.8612 255.903 75.6719 256.214 75.4241 256.475C75.1763 256.735 74.8757 256.94 74.5425 257.076C74.2092 257.211 73.8509 257.274 73.4914 257.26L73.4915 257.26H73.4895C72.6528 257.26 71.8951 256.958 71.1131 256.413C70.3302 255.867 69.5259 255.081 68.596 254.116L67.9163 253.376L67.8295 253.282V253.41Z" fill="black" stroke="black" stroke-width="0.1"/>
<path d="M66.8195 266.368V265.19L74.8674 269.155L74.9395 269.19V269.11V264.67H75.84L75.8989 270.35H75.1409L66.8195 266.368Z" fill="black" stroke="black" stroke-width="0.1"/>
<path d="M67.2907 277.094L68.1285 277.472C67.7795 278.073 67.5873 278.753 67.57 279.449L67.57 279.449V279.45C67.57 280.261 67.8238 280.8 68.1835 281.134C68.5421 281.467 69.0003 281.59 69.4006 281.58C70.0582 281.58 70.5305 281.278 70.8365 280.823C71.1411 280.37 71.2799 279.766 71.2799 279.16V278.52H72.12V279.16C72.12 279.617 72.2367 280.127 72.4943 280.524C72.753 280.924 73.1551 281.21 73.7199 281.21C74.1005 281.21 74.4595 281.089 74.7233 280.817C74.9872 280.545 75.1499 280.129 75.15 279.55L75.1499 279.549C75.1344 278.902 74.9356 278.273 74.5773 277.735L75.3795 277.441C75.8252 278.143 76.0613 278.958 76.0599 279.79V279.79C76.0599 280.68 75.7932 281.321 75.395 281.74C74.9967 282.159 74.4629 282.36 73.9204 282.36C73.4363 282.352 72.9679 282.187 72.5867 281.888C72.2053 281.59 71.932 281.175 71.8083 280.707L71.7105 280.712C71.6286 281.268 71.3506 281.776 70.9268 282.144C70.5029 282.512 69.9612 282.716 69.3998 282.72C68.6784 282.72 68.0022 282.438 67.5059 281.886C67.0095 281.335 66.69 280.51 66.69 279.42L66.69 279.419C66.6803 278.604 66.8878 277.802 67.2907 277.094Z" fill="black" stroke="black" stroke-width="0.1"/>
<path d="M70.5304 289.77C68.1404 289.77 66.6104 291.02 66.6104 293.02C66.6205 293.431 66.713 293.837 66.8824 294.212C67.0519 294.587 67.2949 294.924 67.5969 295.204C67.899 295.484 68.2539 295.7 68.641 295.84C69.0281 295.98 69.4393 296.041 69.8503 296.02L70.5304 289.77ZM70.5304 289.77C72.0609 289.72 73.5491 290.277 74.6704 291.32L70.5304 289.77ZM66.928 294.191C66.7614 293.822 66.6704 293.424 66.6604 293.019C66.6605 292.033 67.0371 291.236 67.706 290.684C68.376 290.13 69.3436 289.82 70.5304 289.82L70.532 289.82C72.0488 289.77 73.5237 290.322 74.6352 291.356C75.3903 292.151 75.86 293.174 75.9706 294.265L75.9706 294.265L75.971 294.268C76.0156 294.546 76.0388 294.827 76.0403 295.109L75.1319 295.091C75.1398 294.793 75.1191 294.496 75.0698 294.202C74.9543 293.374 74.5674 292.608 73.9698 292.023C73.372 291.438 72.5969 291.068 71.7662 290.97L71.7604 291.02L71.7296 291.059C72.193 291.421 72.528 291.923 72.6856 292.489C72.8432 293.056 72.815 293.658 72.6051 294.207C72.3953 294.757 72.0148 295.224 71.5195 295.542C71.0243 295.859 70.4405 296.009 69.8537 295.97L69.8537 295.97L69.8477 295.97C69.4433 295.991 69.0388 295.931 68.658 295.793C68.2772 295.655 67.928 295.443 67.6309 295.167C67.3337 294.892 67.0947 294.56 66.928 294.191ZM68.1526 294.332C68.5515 294.657 69.1148 294.839 69.7772 294.84L70.7504 291.12C70.5844 291.021 70.3933 290.973 70.2003 290.98V290.93C70.2 290.93 70.1997 290.93 70.1994 290.93C69.4376 290.93 68.7692 291.112 68.2898 291.459C67.8085 291.809 67.5204 292.323 67.5204 292.98C67.5204 293.54 67.7522 294.007 68.1526 294.332ZM71.6112 291.822C71.4069 291.5 71.117 291.242 70.7741 291.076L69.7804 294.79C70.0466 294.825 70.3171 294.801 70.5734 294.722C70.8297 294.642 71.0657 294.508 71.2653 294.328C71.4648 294.149 71.6231 293.928 71.7292 293.681C71.8354 293.435 71.887 293.168 71.8804 292.9L71.9304 292.899C71.9304 292.899 71.9304 292.899 71.9304 292.899C71.9263 292.517 71.8158 292.144 71.6112 291.822Z" fill="black" stroke="black" stroke-width="0.1"/>
<path d="M74.7896 305.45H74.8734L74.8335 305.376L74.0041 303.843L74.8539 303.628L75.8995 305.582V306.58H66.8195V305.45H74.7896Z" fill="black" stroke="black" stroke-width="0.1"/>
<path d="M71.3704 316.47V316.46H71.3204C70.1214 316.46 69.1751 316.643 68.5266 316.971C67.8767 317.301 67.5204 317.78 67.5204 318.37C67.5204 318.961 67.9113 319.445 68.5858 319.778C69.2601 320.112 70.226 320.3 71.4004 320.3C72.5731 320.3 73.5193 320.155 74.1743 319.845C74.5023 319.69 74.7592 319.493 74.9341 319.25C75.1094 319.006 75.2004 318.72 75.2004 318.39C75.2004 317.825 74.8516 317.343 74.1958 317.005C73.5498 316.672 72.6004 316.475 71.3704 316.47ZM71.4603 321.46C69.9053 321.46 68.704 321.171 67.893 320.633C67.0846 320.098 66.6604 319.313 66.6604 318.31C66.6604 317.433 67.0732 316.698 67.8615 316.18C68.6518 315.661 69.821 315.36 71.3303 315.36C72.8388 315.36 74.0227 315.691 74.8281 316.25C75.632 316.807 76.0604 317.592 76.0604 318.51C76.0604 319.427 75.6374 320.161 74.8532 320.669C74.0667 321.178 72.9149 321.46 71.4603 321.46Z" fill="black" stroke="black" stroke-width="0.1"/>
</g>
<defs>
<filter id="filter0_d_0_1" x="0" y="0" width="1059.29" height="415.53" filterUnits="userSpaceOnUse" color-interpolation-filters="sRGB">
<feFlood flood-opacity="0" result="BackgroundImageFix"/>
<feColorMatrix in="SourceAlpha" type="matrix" values="0 0 0 0 0 0 0 0 0 0 0 0 0 0 0 0 0 0 127 0" result="hardAlpha"/>
<feOffset dy="4"/>
<feGaussianBlur stdDeviation="2"/>
<feComposite in2="hardAlpha" operator="out"/>
<feColorMatrix type="matrix" values="0 0 0 0 0 0 0 0 0 0 0 0 0 0 0 0 0 0 0.25 0"/>
<feBlend mode="normal" in2="BackgroundImageFix" result="effect1_dropShadow_0_1"/>
<feBlend mode="normal" in="SourceGraphic" in2="effect1_dropShadow_0_1" result="shape"/>
</filter>
</defs>
</svg>
