<svg width="1052" height="408" viewBox="0 0 1052 408" fill="none" xmlns="http://www.w3.org/2000/svg">
<rect width="1052" height="408" fill="#1E1E1E"/>
<path d="M1034.67 1.2053e-05H219.84V14.65C219.802 15.2247 219.547 15.7634 219.126 16.1569C218.705 16.5505 218.151 16.7694 217.575 16.7694C216.999 16.7694 216.445 16.5505 216.024 16.1569C215.603 15.7634 215.348 15.2247 215.31 14.65V1.2053e-05H16.55C12.3381 -0.00369482 8.28283 1.5967 5.20862 4.47587C2.13441 7.35504 0.271982 11.2969 0 15.5C6.0045 15.5 11.7631 17.8853 16.0089 22.1311C20.2547 26.3769 22.64 32.1355 22.64 38.14C22.64 44.1445 20.2547 49.9031 16.0089 54.1489C11.7631 58.3947 6.0045 60.78 0 60.78V81.78C6.0045 81.78 11.7631 84.1653 16.0089 88.4111C20.2547 92.6569 22.64 98.4155 22.64 104.42C22.64 110.425 20.2547 116.183 16.0089 120.429C11.7631 124.675 6.0045 127.06 0 127.06V148C5.92343 148.124 11.5623 150.565 15.7075 154.798C19.8527 159.031 22.1741 164.72 22.1741 170.645C22.1741 176.57 19.8527 182.259 15.7075 186.492C11.5623 190.725 5.92343 193.166 0 193.29V214.23C6.0045 214.23 11.7631 216.615 16.0089 220.861C20.2547 225.107 22.64 230.866 22.64 236.87C22.64 242.875 20.2547 248.633 16.0089 252.879C11.7631 257.125 6.0045 259.51 0 259.51V280.4C6.0045 280.4 11.7631 282.785 16.0089 287.031C20.2547 291.277 22.64 297.036 22.64 303.04C22.64 309.045 20.2547 314.803 16.0089 319.049C11.7631 323.295 6.0045 325.68 0 325.68V346.62C5.92343 346.744 11.5623 349.185 15.7075 353.418C19.8527 357.651 22.1741 363.34 22.1741 369.265C22.1741 375.19 19.8527 380.879 15.7075 385.112C11.5623 389.345 5.92343 391.786 0 391.91C0.247526 396.136 2.10136 400.108 5.18188 403.012C8.26241 405.916 12.3366 407.532 16.5701 407.53H215.33V390.53C215.368 389.955 215.624 389.417 216.044 389.023C216.465 388.63 217.019 388.411 217.595 388.411C218.171 388.411 218.725 388.63 219.146 389.023C219.567 389.417 219.822 389.955 219.86 390.53V407.53H1034.69C1036.87 407.531 1039.03 407.103 1041.04 406.27C1043.06 405.437 1044.89 404.215 1046.43 402.674C1047.97 401.134 1049.19 399.304 1050.03 397.291C1050.86 395.278 1051.29 393.119 1051.29 390.94V16.59C1051.29 14.4092 1050.86 12.2501 1050.02 10.2359C1049.19 8.22176 1047.96 6.39208 1046.42 4.85142C1044.87 3.31077 1043.04 2.08934 1041.03 1.25691C1039.01 0.424483 1036.85 -0.00261579 1034.67 1.2053e-05V1.2053e-05ZM219.84 381.4C219.861 381.71 219.817 382.021 219.713 382.314C219.608 382.607 219.445 382.875 219.233 383.102C219.02 383.328 218.764 383.509 218.478 383.633C218.193 383.757 217.886 383.821 217.575 383.821C217.264 383.821 216.957 383.757 216.672 383.633C216.387 383.509 216.13 383.328 215.917 383.102C215.705 382.875 215.542 382.607 215.437 382.314C215.333 382.021 215.289 381.71 215.31 381.4V359.93C215.348 359.355 215.603 358.817 216.024 358.423C216.445 358.03 216.999 357.811 217.575 357.811C218.151 357.811 218.705 358.03 219.126 358.423C219.547 358.817 219.802 359.355 219.84 359.93V381.4ZM219.84 350.84C219.802 351.415 219.547 351.953 219.126 352.347C218.705 352.74 218.151 352.959 217.575 352.959C216.999 352.959 216.445 352.74 216.024 352.347C215.603 351.953 215.348 351.415 215.31 350.84V329.4C215.289 329.09 215.333 328.779 215.437 328.486C215.542 328.193 215.705 327.925 215.917 327.698C216.13 327.471 216.387 327.291 216.672 327.167C216.957 327.043 217.264 326.979 217.575 326.979C217.886 326.979 218.193 327.043 218.478 327.167C218.764 327.291 219.02 327.471 219.233 327.698C219.445 327.925 219.608 328.193 219.713 328.486C219.817 328.779 219.861 329.09 219.84 329.4V350.84ZM219.84 320.27C219.861 320.58 219.817 320.891 219.713 321.184C219.608 321.476 219.445 321.745 219.233 321.972C219.02 322.198 218.764 322.379 218.478 322.503C218.193 322.627 217.886 322.691 217.575 322.691C217.264 322.691 216.957 322.627 216.672 322.503C216.387 322.379 216.13 322.198 215.917 321.972C215.705 321.745 215.542 321.476 215.437 321.184C215.333 320.891 215.289 320.58 215.31 320.27V298.8C215.348 298.225 215.603 297.687 216.024 297.293C216.445 296.9 216.999 296.681 217.575 296.681C218.151 296.681 218.705 296.9 219.126 297.293C219.547 297.687 219.802 298.225 219.84 298.8V320.27ZM219.84 289.71C219.802 290.285 219.547 290.823 219.126 291.217C218.705 291.61 218.151 291.829 217.575 291.829C216.999 291.829 216.445 291.61 216.024 291.217C215.603 290.823 215.348 290.285 215.31 289.71V268.24C215.289 267.93 215.333 267.619 215.437 267.326C215.542 267.033 215.705 266.765 215.917 266.538C216.13 266.311 216.387 266.131 216.672 266.007C216.957 265.883 217.264 265.819 217.575 265.819C217.886 265.819 218.193 265.883 218.478 266.007C218.764 266.131 219.02 266.311 219.233 266.538C219.445 266.765 219.608 267.033 219.713 267.326C219.817 267.619 219.861 267.93 219.84 268.24V289.71ZM219.84 259.14C219.802 259.715 219.547 260.253 219.126 260.647C218.705 261.04 218.151 261.259 217.575 261.259C216.999 261.259 216.445 261.04 216.024 260.647C215.603 260.253 215.348 259.715 215.31 259.14V237.67C215.348 237.095 215.603 236.557 216.024 236.163C216.445 235.77 216.999 235.551 217.575 235.551C218.151 235.551 218.705 235.77 219.126 236.163C219.547 236.557 219.802 237.095 219.84 237.67V259.14ZM219.84 228.57C219.861 228.88 219.817 229.191 219.713 229.484C219.608 229.777 219.445 230.045 219.233 230.272C219.02 230.498 218.764 230.679 218.478 230.803C218.193 230.927 217.886 230.991 217.575 230.991C217.264 230.991 216.957 230.927 216.672 230.803C216.387 230.679 216.13 230.498 215.917 230.272C215.705 230.045 215.542 229.777 215.437 229.484C215.333 229.191 215.289 228.88 215.31 228.57V207.1C215.348 206.525 215.603 205.987 216.024 205.593C216.445 205.2 216.999 204.981 217.575 204.981C218.151 204.981 218.705 205.2 219.126 205.593C219.547 205.987 219.802 206.525 219.84 207.1V228.57ZM219.84 198.01C219.802 198.585 219.547 199.123 219.126 199.517C218.705 199.91 218.151 200.129 217.575 200.129C216.999 200.129 216.445 199.91 216.024 199.517C215.603 199.123 215.348 198.585 215.31 198.01V176.54C215.289 176.23 215.333 175.919 215.437 175.626C215.542 175.333 215.705 175.065 215.917 174.838C216.13 174.612 216.387 174.431 216.672 174.307C216.957 174.183 217.264 174.119 217.575 174.119C217.886 174.119 218.193 174.183 218.478 174.307C218.764 174.431 219.02 174.612 219.233 174.838C219.445 175.065 219.608 175.333 219.713 175.626C219.817 175.919 219.861 176.23 219.84 176.54V198.01ZM219.84 167.44C219.861 167.75 219.817 168.061 219.713 168.354C219.608 168.647 219.445 168.915 219.233 169.142C219.02 169.369 218.764 169.549 218.478 169.673C218.193 169.797 217.886 169.861 217.575 169.861C217.264 169.861 216.957 169.797 216.672 169.673C216.387 169.549 216.13 169.369 215.917 169.142C215.705 168.915 215.542 168.647 215.437 168.354C215.333 168.061 215.289 167.75 215.31 167.44V145.97C215.348 145.395 215.603 144.857 216.024 144.463C216.445 144.07 216.999 143.851 217.575 143.851C218.151 143.851 218.705 144.07 219.126 144.463C219.547 144.857 219.802 145.395 219.84 145.97V167.44ZM219.84 136.88C219.802 137.455 219.547 137.993 219.126 138.387C218.705 138.78 218.151 138.999 217.575 138.999C216.999 138.999 216.445 138.78 216.024 138.387C215.603 137.993 215.348 137.455 215.31 136.88V115.4C215.289 115.09 215.333 114.779 215.437 114.486C215.542 114.193 215.705 113.925 215.917 113.698C216.13 113.472 216.387 113.291 216.672 113.167C216.957 113.043 217.264 112.979 217.575 112.979C217.886 112.979 218.193 113.043 218.478 113.167C218.764 113.291 219.02 113.472 219.233 113.698C219.445 113.925 219.608 114.193 219.713 114.486C219.817 114.779 219.861 115.09 219.84 115.4V136.88ZM219.84 106.31C219.802 106.885 219.547 107.423 219.126 107.817C218.705 108.21 218.151 108.429 217.575 108.429C216.999 108.429 216.445 108.21 216.024 107.817C215.603 107.423 215.348 106.885 215.31 106.31V84.84C215.348 84.2653 215.603 83.7266 216.024 83.3331C216.445 82.9395 216.999 82.7206 217.575 82.7206C218.151 82.7206 218.705 82.9395 219.126 83.3331C219.547 83.7266 219.802 84.2653 219.84 84.84V106.31ZM219.84 75.74C219.861 76.0501 219.817 76.3611 219.713 76.6538C219.608 76.9465 219.445 77.2146 219.233 77.4416C219.02 77.6685 218.764 77.8494 218.478 77.9731C218.193 78.0968 217.886 78.1606 217.575 78.1606C217.264 78.1606 216.957 78.0968 216.672 77.9731C216.387 77.8494 216.13 77.6685 215.917 77.4416C215.705 77.2146 215.542 76.9465 215.437 76.6538C215.333 76.3611 215.289 76.0501 215.31 75.74V54.27C215.348 53.6953 215.603 53.1566 216.024 52.7631C216.445 52.3695 216.999 52.1506 217.575 52.1506C218.151 52.1506 218.705 52.3695 219.126 52.7631C219.547 53.1566 219.802 53.6953 219.84 54.27V75.74ZM219.84 45.18C219.802 45.7547 219.547 46.2934 219.126 46.6869C218.705 47.0805 218.151 47.2994 217.575 47.2994C216.999 47.2994 216.445 47.0805 216.024 46.6869C215.603 46.2934 215.348 45.7547 215.31 45.18V23.71C215.289 23.3999 215.333 23.0889 215.437 22.7962C215.542 22.5035 215.705 22.2354 215.917 22.0084C216.13 21.7815 216.387 21.6006 216.672 21.4769C216.957 21.3532 217.264 21.2894 217.575 21.2894C217.886 21.2894 218.193 21.3532 218.478 21.4769C218.764 21.6006 219.02 21.7815 219.233 22.0084C219.445 22.2354 219.608 22.5035 219.713 22.7962C219.817 23.0889 219.861 23.3999 219.84 23.71V45.18Z" fill="url(#paint0_linear_0_1)"/>
<defs>
<linearGradient id="paint0_linear_0_1" x1="1041.77" y1="-27.3099" x2="-1440.09" y2="1083.78" gradientUnits="userSpaceOnUse">
<stop stop-color="white"/>
<stop offset="1" stop-color="#CECECE"/>
</linearGradient>
</defs>
</svg>
